<svg width="40" height="40" viewBox="0 0 40 40" fill="none" xmlns="http://www.w3.org/2000/svg">
<path d="M38.4375 40H1.5625C0.699531 40 0 39.3005 0 38.4375V1.5625C0 0.699531 0.699531 0 1.5625 0H38.4375C39.3005 0 40 0.699531 40 1.5625V38.4375C40 39.3005 39.3005 40 38.4375 40ZM3.125 36.875H36.875V3.125H3.125V36.875ZM25.6368 10.4619C26.498 10.4619 26.8633 11.4013 26.8633 12.2625C26.8633 13.2541 26.4196 14.1153 25.6368 14.1153H22.0355V28.2855C22.0355 29.1205 21.0178 29.5381 20 29.5381C18.9823 29.5381 17.9645 29.1205 17.9645 28.2855V14.1153H14.3633C13.5804 14.1153 13.1368 13.2542 13.1368 12.2625C13.1368 11.4013 13.5021 10.4619 14.3633 10.4619H25.6368Z" fill="url(#paint0_linear)"/>
<defs>
<linearGradient id="paint0_linear" x1="0" y1="20" x2="40" y2="20" gradientUnits="userSpaceOnUse">
<stop stop-color="#303F74"/>
<stop offset="1" stop-color="#1AE5BE"/>
</linearGradient>
</defs>
</svg>
